<?xml version="1.0" encoding="UTF-8"?>
<svg id="Layer_2" data-name="Layer 2" xmlns="http://www.w3.org/2000/svg" viewBox="0 0 16.5 16.5">
  <defs>
    <style>
      .cls-1 {
        fill: #3179ed;
        fill-rule: evenodd;
      }
    </style>
  </defs>
  <g id="Layer_1-2" data-name="Layer 1">
    <path class="cls-1" d="M14.71,7.37c-1.25-.53-2.38-1.29-3.34-2.25-1.34-1.34-2.29-3.01-2.76-4.84-.05-.2-.26-.32-.46-.27-.13.03-.24.14-.27.27-.47,1.83-1.42,3.5-2.76,4.84-.96.96-2.09,1.72-3.34,2.25-.49.21-.99.38-1.5.51-.2.05-.33.25-.28.46.03.14.14.24.28.28.51.13,1.01.3,1.5.51,1.25.53,2.38,1.29,3.34,2.25,1.34,1.34,2.29,3.01,2.76,4.84.05.2.25.33.46.28.14-.03.24-.14.28-.28.13-.51.3-1.01.51-1.5.53-1.25,1.29-2.38,2.25-3.34,1.34-1.34,3.01-2.29,4.84-2.76.2-.05.32-.26.27-.46-.03-.13-.14-.24-.27-.27-.51-.13-1.02-.3-1.5-.51Z"/>
  </g>
</svg>