<?xml version="1.0" encoding="UTF-8"?>
<svg id="Layer_1" xmlns="http://www.w3.org/2000/svg" version="1.1" viewBox="0 0 35 33">
  <!-- Generator: Adobe Illustrator 30.3.0, SVG Export Plug-In . SVG Version: 2.1.3 Build 182)  -->
  <path id="mark" d="M13.237,21.041l11.082-8.19c.543-.402,1.32-.245,1.579.379,1.362,3.289.754,7.242-1.957,9.956-2.711,2.714-6.482,3.309-9.929,1.953l-3.766,1.746c5.401,3.696,11.96,2.782,16.059-1.324,3.251-3.255,4.258-7.692,3.316-11.693l.008.009c-1.365-5.878.336-8.227,3.82-13.031.082-.114.165-.228.247-.345l-4.585,4.591v-.014l-15.877,15.967"/>
  <path id="mark1" data-name="mark" d="M10.95,23.031c-3.877-3.708-3.208-9.446.099-12.755,2.446-2.449,6.454-3.449,9.952-1.979l3.757-1.737c-.677-.49-1.545-1.017-2.54-1.387-4.5-1.854-9.887-.931-13.545,2.728-3.518,3.523-4.625,8.939-2.725,13.561,1.419,3.454-.907,5.898-3.251,8.364-.831.874-1.664,1.748-2.335,2.674l10.584-9.466"/>
</svg>