<?xml version="1.0" encoding="UTF-8"?>
<svg id="Layer_2" data-name="Layer 2" xmlns="http://www.w3.org/2000/svg" viewBox="0 0 15.75 18">
  <defs>
    <style>
      .cls-1 {
        fill: #22b8cd;
      }
    </style>
  </defs>
  <g id="Layer_1-2" data-name="Layer 1">
    <path class="cls-1" d="M13.71,0v5.45h2.04v7.76h-2.2v4.78l-5.28-4.65v4.61h-.82v-4.61l-5.28,4.65v-4.85H0v-7.76h2.16V0l5.29,4.87V.14h.82v4.87L13.71,0h0ZM8.27,6.78v5.49l4.46,3.93v-5.37l-4.46-4.05h0ZM7.45,6.72l-4.46,4.05v5.43l4.46-3.93v-5.55h0ZM13.55,12.41h1.38v-6.15h-5.96l4.58,4.15s0,1.99,0,1.99ZM6.81,6.2H.82v6.15h1.35v-1.93l4.64-4.21h0ZM2.98,1.86v3.53h3.84S2.98,1.86,2.98,1.86ZM12.9,1.86l-3.84,3.53h3.84s0-3.53,0-3.53Z"/>
  </g>
</svg>